<svg xmlns="http://www.w3.org/2000/svg" data-name="Layer 1" viewBox="0 0 100 125" x="0px" y="0px"><title>2Artboard 39</title><path d="M20,5a3,3,0,0,1,6,0V26h6V5a3,3,0,0,1,6,0V26h6V5a3,3,0,0,1,6,0V41a9,9,0,0,1-9,9H40l3.25,39.06A8.26,8.26,0,0,1,35,98H35a8.25,8.25,0,0,1-8.23-8.94L30,50H29a9,9,0,0,1-9-9ZM80,5a3,3,0,0,0-3-3A15,15,0,0,0,62,17V44a6,6,0,0,0,6,6h2L63.6,88.39A8.26,8.26,0,1,0,80,89.74Z"/><text x="0" y="115" fill="#000000" font-size="5px" font-weight="bold" font-family="'Helvetica Neue', Helvetica, Arial-Unicode, Arial, Sans-serif">Created by Gregor Cresnar</text><text x="0" y="120" fill="#000000" font-size="5px" font-weight="bold" font-family="'Helvetica Neue', Helvetica, Arial-Unicode, Arial, Sans-serif">from the Noun Project</text></svg>