<svg xmlns="http://www.w3.org/2000/svg" xmlns:xlink="http://www.w3.org/1999/xlink" version="1.1" x="0px" y="0px" viewBox="0 0 100 125" style="enable-background:new 0 0 100 100;" xml:space="preserve"><g><path d="M50,88.8l1.1-1.3c1.2-1.4,30.5-35.3,30.5-52.3C81.7,17.7,67.5,3.5,50,3.5S18.3,17.7,18.3,35.2c0,17,29.3,50.9,30.5,52.3   L50,88.8z M50,6.5c15.8,0,28.7,12.9,28.7,28.7c0,14.1-23.2,42.5-28.7,49c-5.4-6.5-28.7-34.9-28.7-49C21.3,19.4,34.2,6.5,50,6.5z"/><path d="M72.6,35.2c0-12.5-10.1-22.6-22.6-22.6c-12.5,0-22.6,10.1-22.6,22.6c0,12.5,10.1,22.6,22.6,22.6   C62.5,57.7,72.6,47.6,72.6,35.2z M51.5,54.5v-17h8.1C59.1,46,55.7,53.1,51.5,54.5z M51.5,34.5V15.8c4.4,1.5,8,9.4,8.1,18.6H51.5z    M48.5,15.8v18.6h-8.1C40.6,25.2,44.1,17.3,48.5,15.8z M48.5,37.5v17c-4.2-1.4-7.5-8.4-8.1-17H48.5z M57.8,53.2   c2.7-3.7,4.5-9.2,4.9-15.7h6.9C68.7,44.5,64.1,50.4,57.8,53.2z M69.6,34.5h-6.9c-0.1-7.1-2-13.4-4.9-17.3   C64.5,20.1,69.3,26.7,69.6,34.5z M42.3,17.1c-2.9,4-4.8,10.2-4.9,17.3h-6.9C30.8,26.7,35.5,20.1,42.3,17.1z M30.6,37.5h6.9   c0.4,6.5,2.2,12,4.9,15.7C36,50.4,31.4,44.5,30.6,37.5z"/><path d="M65.7,82.9c-0.8-0.2-1.6,0.2-1.9,1c-0.2,0.8,0.2,1.6,1,1.9c4.4,1.2,5.3,2.6,5.3,3c0,1.4-6.9,4.7-20.2,4.7   s-20.2-3.3-20.2-4.7c0-0.4,1-1.7,5.3-2.9c0.8-0.2,1.3-1.1,1-1.9c-0.2-0.8-1.1-1.3-1.9-1c-4.9,1.4-7.4,3.4-7.4,5.8   c0,5.3,12,7.7,23.2,7.7s23.2-2.4,23.2-7.7C73.2,86.3,70.7,84.4,65.7,82.9z"/></g><text x="0" y="115" fill="#000000" font-size="5px" font-weight="bold" font-family="'Helvetica Neue', Helvetica, Arial-Unicode, Arial, Sans-serif">Created by Justin Blake</text><text x="0" y="120" fill="#000000" font-size="5px" font-weight="bold" font-family="'Helvetica Neue', Helvetica, Arial-Unicode, Arial, Sans-serif">from the Noun Project</text></svg>