<svg xmlns="http://www.w3.org/2000/svg" viewBox="0 0 48 60" x="0px" y="0px"><title>Restaurant vol.1</title><g data-name="Layer 13"><path d="M8.939,2.30371c-3.46972,0-6.188,3.87109-6.188,8.8125,0,4.4541,2.21124,8.02832,5.188,8.692V45.66211a1,1,0,0,0,2,0V19.80817c2.97675-.66364,5.188-4.23786,5.188-8.692C15.127,6.1748,12.40869,2.30371,8.939,2.30371Zm0,15.625c-2.27,0-4.188-3.11963-4.188-6.8125s1.918-6.8125,4.188-6.8125,4.188,3.11963,4.188,6.8125S11.209,17.92871,8.939,17.92871Z"/><path d="M32.14746,1.60645a.99974.99974,0,0,0-1,1v9.64843a4.33106,4.33106,0,1,1-8.66211,0V2.36133a1,1,0,1,0-2,0v9.89355a6.33806,6.33806,0,0,0,5.18457,6.22174V45.66211a1,1,0,0,0,2,0V18.52148a6.33574,6.33574,0,0,0,5.47754-6.2666V2.60645A.99973.99973,0,0,0,32.14746,1.60645Z"/><path d="M25.07031,10.53076a.99973.99973,0,0,0,1-1V2.36133a1,1,0,1,0-2,0V9.53076A1.00005,1.00005,0,0,0,25.07031,10.53076Z"/><path d="M28.624,10.53076a.99973.99973,0,0,0,1-1V2.36133a1,1,0,1,0-2,0V9.53076A.99974.99974,0,0,0,28.624,10.53076Z"/><path d="M44.44824,1.38135c-.17187-.03565-4.291-.792-5.77148,5.97461-1.21289,5.54052-1.5918,15.37353-.30371,17.46631.918,1.49121,3.43847,2.09082,4.876,2.31738V45.66211a1,1,0,0,0,2,0V2.36133A1.00008,1.00008,0,0,0,44.44824,1.38135ZM43.249,25.10645c-1.31445-.2461-2.79687-.72168-3.17285-1.33252-.68262-1.10987-.80371-9.78516.55371-15.99024.66114-3.02148,1.834-4.001,2.61914-4.311Z"/></g><text x="0" y="63" fill="#000000" font-size="5px" font-weight="bold" font-family="'Helvetica Neue', Helvetica, Arial-Unicode, Arial, Sans-serif">Created by BlackActurus</text><text x="0" y="68" fill="#000000" font-size="5px" font-weight="bold" font-family="'Helvetica Neue', Helvetica, Arial-Unicode, Arial, Sans-serif">from the Noun Project</text></svg>