<svg xmlns="http://www.w3.org/2000/svg" xmlns:xlink="http://www.w3.org/1999/xlink" version="1.1" x="0px" y="0px" viewBox="0 0 64 80" style="enable-background:new 0 0 64 64;" xml:space="preserve"><g><path d="M47.461,32.334C46.519,31.235,46,29.833,46,28.385v-1.454c3.94-0.495,7-3.859,7-7.931c0-4.411-3.589-8-8-8   c-0.464,0-0.917,0.048-1.359,0.124l-2.07-3.451C40.951,6.642,39.818,6,38.614,6c-1.381,0-2.625,0.82-3.169,2.089L34.656,9.93   C33.857,11.795,32.029,13,30,13c-0.704,0-1.344,0.254-1.856,0.661L24.375,2.999C23.951,1.804,22.814,1,21.547,1H12v6h7.318   l4.801,12.21C24.049,19.463,24,19.725,24,20c0,0.352,0.072,0.686,0.184,1H23c-1.654,0-3,1.346-3,3c0,1.302,0.839,2.402,2,2.816   v1.569c0,1.448-0.519,2.851-1.462,3.95C17.611,35.75,16,40.107,16,44.604c0,4.794,1.795,9.303,5.038,12.798   C19.254,58.167,18,59.939,18,62v1h32v-1c0-2.061-1.254-3.833-3.038-4.597C50.205,53.907,52,49.399,52,44.604   C52,40.107,50.389,35.75,47.461,32.334z M51,19c0,3.309-2.691,6-6,6s-6-2.691-6-6s2.691-6,6-6S51,15.691,51,19z M14,5V3h7.547   c0.423,0,0.802,0.269,0.943,0.666l4.57,12.926c0.028,0.141,0.077,0.274,0.124,0.408H27c-0.528,0-1.016,0.149-1.448,0.389L20.682,5   H14z M23,23h4h4h2v-2h-2h-4c-0.552,0-1-0.448-1-1s0.448-1,1-1h3h2h3v-2h-3h-2c-0.552,0-1-0.448-1-1s0.448-1,1-1   c2.831,0,5.38-1.682,6.494-4.282l0.789-1.84C37.512,8.345,38.034,8,38.614,8c0.506,0,0.981,0.27,1.241,0.703l1.818,3.03   C38.92,12.999,37,15.776,37,19c0,2.39,1.059,4.533,2.726,6H33c-1.654,0-3,1.346-3,3v6c0,0.552-0.448,1-1,1s-1-0.448-1-1v-6   c0-1.654-1.346-3-3-3h-2c-0.552,0-1-0.448-1-1S22.448,23,23,23z M47.829,61H20.171c0.413-1.164,1.525-2,2.829-2h14v-2H23.414   l-0.478-0.478C19.753,53.339,18,49.106,18,44.604c0-4.021,1.44-7.915,4.057-10.968C23.31,32.175,24,30.31,24,28.385V27h1   c0.552,0,1,0.448,1,1v6c0,1.654,1.346,3,3,3s3-1.346,3-3v-6c0-0.552,0.448-1,1-1h11v1.385c0,1.925,0.69,3.79,1.942,5.251   C48.56,36.689,50,40.584,50,44.604c0,4.502-1.753,8.734-4.937,11.918L44.586,57H39v2h6C46.304,59,47.416,59.836,47.829,61z"/><path d="M23.1,39.404l-1.83-0.809C20.428,40.503,20,42.524,20,44.604c0,2.825,0.791,5.567,2.288,7.931l1.689-1.07   C22.684,49.423,22,47.05,22,44.604C22,42.805,22.37,41.056,23.1,39.404z"/><rect x="41" y="18" width="2" height="2"/><rect x="44" y="15" width="2" height="2"/><rect x="44" y="21" width="2" height="2"/><rect x="47" y="18" width="2" height="2"/></g><text x="0" y="79" fill="#000000" font-size="5px" font-weight="bold" font-family="'Helvetica Neue', Helvetica, Arial-Unicode, Arial, Sans-serif">Created by Eucalyp</text><text x="0" y="84" fill="#000000" font-size="5px" font-weight="bold" font-family="'Helvetica Neue', Helvetica, Arial-Unicode, Arial, Sans-serif">from the Noun Project</text></svg>