<svg xmlns="http://www.w3.org/2000/svg" viewBox="0 0 64 80" x="0px" y="0px"><title>smoothies-diet-nutrition-furit-apple</title><g><path d="M46,28H42V27a3,3,0,0,0-2-2.816V21.816A3,3,0,0,0,42,19V15a3,3,0,0,0-3-3H38V2H32V12H30.414L21.949,3.534A5.243,5.243,0,0,0,13,7.242V8.758A5.187,5.187,0,0,0,14.155,12H14a3,3,0,0,0-3,3v4a3,3,0,0,0,2,2.816v2.368A3,3,0,0,0,11,27V55a7.008,7.008,0,0,0,7,7H35a7.008,7.008,0,0,0,7-7V54h4a7.008,7.008,0,0,0,7-7V35A7.008,7.008,0,0,0,46,28ZM15,22H38v2H15ZM34,4h2v8H34ZM15,8.758V7.242a3.243,3.243,0,0,1,5.536-2.293L27.586,12H18.243A3.246,3.246,0,0,1,15,8.758ZM14,14H39a1,1,0,0,1,1,1v1H34v2h6v1a1,1,0,0,1-1,1H14a1,1,0,0,1-1-1V18H30V16H13V15A1,1,0,0,1,14,14ZM40,55a5.006,5.006,0,0,1-5,5H18a5.006,5.006,0,0,1-5-5V27a1,1,0,0,1,1-1H39a1,1,0,0,1,1,1V55Zm2-20h3a1,1,0,0,1,1,1V46a1,1,0,0,1-1,1H42Zm9,12a5.006,5.006,0,0,1-5,5H42V49h3a3,3,0,0,0,3-3V36a3,3,0,0,0-3-3H42V30h4a5.006,5.006,0,0,1,5,5Z"/><rect x="20" y="7.586" width="2" height="2.828" rx="1" transform="translate(-0.213 17.485) rotate(-45)"/><rect x="17" y="29" width="2" height="2"/><rect x="24" y="32" width="2" height="2"/><rect x="19" y="40" width="2" height="2"/><rect x="32" y="37" width="2" height="2"/><rect x="33" y="28" width="2" height="2"/><rect x="27" y="44" width="2" height="2"/><rect x="16" y="51" width="2" height="2"/><rect x="24" y="54" width="2" height="2"/><rect x="34" y="48" width="2" height="2"/></g><text x="0" y="79" fill="#000000" font-size="5px" font-weight="bold" font-family="'Helvetica Neue', Helvetica, Arial-Unicode, Arial, Sans-serif">Created by mynamepong</text><text x="0" y="84" fill="#000000" font-size="5px" font-weight="bold" font-family="'Helvetica Neue', Helvetica, Arial-Unicode, Arial, Sans-serif">from the Noun Project</text></svg>