<svg xmlns="http://www.w3.org/2000/svg" xmlns:xlink="http://www.w3.org/1999/xlink" version="1.1" x="0px" y="0px" viewBox="0 0 64 80" style="enable-background:new 0 0 64 64;" xml:space="preserve"><g><path d="M56.09,37.783c1.088-2.222,1.385-4.735,0.883-7.123l4.597-2.776c0.177-0.107,0.341-0.232,0.485-0.371   c0.542-0.517,0.85-1.213,0.867-1.961c0.018-0.749-0.258-1.459-0.775-2.001l-0.272-0.285c-0.191-0.201-0.414-0.358-0.648-0.491   l0.093-0.089c0.581-0.553,0.911-1.299,0.93-2.101s-0.276-1.562-0.829-2.142c-1.143-1.196-3.046-1.24-4.242-0.099l-0.095,0.09   c-0.121-0.238-0.265-0.468-0.459-0.671l-0.272-0.286c-0.518-0.542-1.214-0.85-1.962-0.867c-0.749-0.012-1.459,0.258-1.996,0.771   c-0.151,0.143-0.286,0.303-0.397,0.471l-2.989,4.462c-0.425-0.11-0.853-0.2-1.287-0.259c-0.562-3.938-1.771-6.393-1.826-6.503   l-0.447-0.895l-1.382,0.691l-1.469-9.547C42.169,3.02,39.815,1,37,1s-5.169,2.02-5.597,4.802l-1.484,9.646l-1.268-0.986   l-0.546,1.091c-0.081,0.162-1.876,3.819-2.084,9.394c-1.276-0.493-2.639-0.801-4.062-0.898C21.8,18.776,21.006,14,17,14v2   c1.437,0,2.181,1.533,2.571,3.711C18.343,18.648,16.747,18,15,18H8v1c0,3.508,2.596,6.412,5.966,6.915C9.807,28.345,7,32.846,7,38   c0,0.028,0.005,0.055,0.005,0.083C3.036,39.425,1,41.075,1,43c0,11.028,8.972,20,20,20h22c11.028,0,20-8.972,20-20   C63,40.927,60.673,39.175,56.09,37.783z M61,43c0,1.931-6.556,4.447-17.784,5.501l9.137-6.377c0.458-0.32,0.896-0.677,1.299-1.062   l0.17-0.162c0.442-0.422,0.829-0.878,1.185-1.351C59.409,40.812,61,42.183,61,43z M34.969,37.383l7.324,7.324l1.414-1.414l-8-8   l-0.846,0.846c-0.115-0.863-0.303-1.701-0.569-2.507l4.633-6.018c0.278-0.361,0.588-0.705,0.919-1.021l0.169-0.162   c3.589-3.426,9.298-3.294,12.725,0.297c3.426,3.59,3.293,9.299-0.298,12.725l-0.17,0.163c-0.33,0.315-0.688,0.607-1.062,0.869   l-11.907,8.311C37.017,48.926,34.583,49,32,49c-0.79,0-1.562-0.009-2.324-0.022C32.983,46.359,35,42.336,35,38   C35,37.792,34.978,37.589,34.969,37.383z M59.866,24.397c0.214,0.005,0.413,0.093,0.562,0.249l0.273,0.286   c0.147,0.155,0.227,0.358,0.222,0.572c-0.006,0.214-0.094,0.413-0.251,0.563c-0.04,0.039-0.086,0.074-0.137,0.104l-4.174,2.521   c-0.125-0.298-0.261-0.592-0.413-0.881l3.345-3.193C59.448,24.472,59.626,24.406,59.866,24.397z M59.973,19.824   c0.185,0.193,0.283,0.447,0.276,0.714c-0.006,0.267-0.116,0.515-0.31,0.7l-5.1,4.868c-0.206-0.259-0.421-0.514-0.654-0.758   c-0.233-0.244-0.478-0.47-0.727-0.688l3.074-2.933c0,0,0.001-0.001,0.001-0.002l2.025-1.933   C58.958,19.409,59.593,19.426,59.973,19.824z M53.661,18.96c0.03-0.045,0.065-0.087,0.109-0.129   c0.155-0.148,0.354-0.219,0.572-0.222c0.214,0.005,0.414,0.093,0.562,0.249l0.272,0.286c0.305,0.319,0.293,0.826-0.025,1.131   l-3.348,3.195c-0.281-0.166-0.569-0.316-0.861-0.454L53.661,18.96z M45.682,21.969c-2.548,0.125-5.064,1.12-7.051,3.015   l-0.169,0.162c-0.404,0.386-0.781,0.805-1.121,1.247l-3.945,5.124c-1.232-2.345-3.109-4.294-5.394-5.621   c0-0.097,0.006-0.187,0.008-0.283l16.484-8.242C44.845,18.299,45.355,19.893,45.682,21.969z M33.38,6.105   C33.656,4.306,35.179,3,37,3s3.344,1.306,3.62,3.105l1.567,10.183l-6.809,3.405l-3.651-2.84L33.38,6.105z M29.425,17.598   l3.969,3.087l-5.252,2.626C28.41,20.757,29.003,18.763,29.425,17.598z M10.101,20H15c2.415,0,4.435,1.721,4.899,4H15   C12.585,24,10.565,22.279,10.101,20z M19.995,26.051C20,26.71,20,27.365,20,28v1.846c-0.626-0.202-1-0.565-1-0.846h-2   c0,1.682,1.757,3,4,3s4-1.318,4-3h-2c0,0.28-0.374,0.643-1,0.846V28c0-0.644-0.001-1.297-0.006-1.95C28.147,26.558,33,31.719,33,38   c0,4.656-2.709,8.894-6.916,10.866c-4.775-0.218-8.919-0.689-12.323-1.305C10.781,45.299,9,41.742,9,38   C9,31.723,13.847,26.564,19.995,26.051z M7.185,40.127c0.38,2.44,1.394,4.737,2.935,6.653C5.526,45.62,3,44.198,3,43   C3,42.337,4.126,41.226,7.185,40.127z M43,61H21c-8.82,0-16.165-6.382-17.694-14.768C8.197,49.372,20.15,51,32,51   s23.803-1.628,28.694-4.768C59.165,54.618,51.82,61,43,61z"/><path d="M55.381,49.532C52.939,54.138,48.195,57,43,57h-1v2h1c5.938,0,11.359-3.269,14.148-8.532L55.381,49.532z"/><rect x="34" y="6" width="2" height="2"/><rect x="38" y="6" width="2" height="2"/><rect x="34" y="10" width="2" height="2"/><rect x="38" y="10" width="2" height="2"/><rect x="34" y="14" width="2" height="2"/><rect x="38" y="14" width="2" height="2"/><path d="M13.831,34.445l-1.791-0.891c-0.352,0.707-0.618,1.455-0.793,2.224l1.951,0.442C13.337,35.607,13.55,35.01,13.831,34.445z"/><path d="M16.555,46.96l0.891-1.791C14.703,43.807,13,41.06,13,38h-2C11,41.824,13.129,45.257,16.555,46.96z"/><rect x="46" y="26.343" transform="matrix(0.7071 -0.7071 0.7071 0.7071 -8.8614 42.6066)" width="2" height="11.314"/><rect x="42" y="30.343" transform="matrix(0.7071 -0.7071 0.7071 0.7071 -12.8614 40.9497)" width="2" height="11.314"/><rect x="38" y="57" width="2" height="2"/></g><text x="0" y="79" fill="#000000" font-size="5px" font-weight="bold" font-family="'Helvetica Neue', Helvetica, Arial-Unicode, Arial, Sans-serif">Created by Eucalyp</text><text x="0" y="84" fill="#000000" font-size="5px" font-weight="bold" font-family="'Helvetica Neue', Helvetica, Arial-Unicode, Arial, Sans-serif">from the Noun Project</text></svg>