<svg xmlns="http://www.w3.org/2000/svg" xmlns:xlink="http://www.w3.org/1999/xlink" version="1.1" x="0px" y="0px" viewBox="0 0 48 60" enable-background="new 0 0 48 48" xml:space="preserve"><g><path d="M47.9,15.3l-0.8-4.2c-0.1-0.5-0.5-0.8-1-0.8h-13l1.1-3.6l8.1-4.9c0.5-0.3,0.6-0.9,0.3-1.4c-0.3-0.5-0.9-0.6-1.4-0.3   l-8.4,5.1c-0.2,0.1-0.4,0.3-0.4,0.6L31,10.3H17.5c-0.5,0-0.9,0.3-1,0.8l-0.9,4.4c-0.1,0.3,0,0.6,0.2,0.8c0.2,0.2,0.5,0.4,0.8,0.4   h1.6l0.5,2.8H9.4c-5.2,0-9.4,4.2-9.4,9.4c0,0.6,0.4,1,1,1h32.2c0,0,0,0,0,0c0.6,0,1-0.4,1-1c0-0.1,0-0.1,0-0.2   c-0.1-5.1-4.3-9.2-9.4-9.2h-4.2l-0.5-2.8h23.2L38.6,46H32c0.9-0.8,1.7-1.8,2.1-3c0.1-0.3,0.1-0.7-0.1-0.9c-0.2-0.3-0.5-0.4-0.8-0.4   H1c-0.3,0-0.6,0.2-0.8,0.4C0,42.4-0.1,42.7,0.1,43c1.1,3,4.2,5,7.6,5h18.8c0,0,0,0,0,0c0,0,0,0,0,0h13c0.5,0,0.9-0.4,1-0.8l5-30.5   H47c0,0,0,0,0,0c0.6,0,1-0.4,1-1C48,15.5,48,15.4,47.9,15.3z M32.1,27.8H2.1c0.5-3.6,3.6-6.4,7.3-6.4h15.4   C28.5,21.4,31.6,24.2,32.1,27.8z M2.7,43.7h28.8c-1.1,1.4-3,2.3-5,2.3H7.7C5.6,46,3.8,45.1,2.7,43.7z M44.6,14.7   C44.6,14.7,44.6,14.7,44.6,14.7l-25.6,0c0,0,0,0,0,0h-1.2l0.5-2.4h27l0.5,2.4H44.6z"/><path d="M1,39.8h32.2c0.6,0,1-0.4,1-1c0-0.6-0.4-1-1-1H1c-0.6,0-1,0.4-1,1C0,39.3,0.4,39.8,1,39.8z"/><path d="M6.3,34.1c0.9-0.8,2.4-0.8,3.3,0c1.7,1.5,4.3,1.5,5.9,0c0.9-0.8,2.4-0.8,3.3,0c1.6,1.5,4.3,1.5,5.9,0   c0.9-0.8,2.4-0.8,3.3,0c0.8,0.7,1.9,1.1,3,1.1c1.1,0,2.1-0.4,3-1.1c0.4-0.4,0.4-1,0.1-1.4c-0.4-0.4-1-0.4-1.4-0.1   c-0.9,0.8-2.4,0.8-3.3,0c-1.7-1.5-4.3-1.5-5.9,0c-0.9,0.8-2.4,0.8-3.3,0c-1.7-1.5-4.3-1.5-5.9,0c-0.9,0.8-2.4,0.8-3.3,0   c-1.7-1.5-4.3-1.5-5.9,0c-0.9,0.8-2.4,0.8-3.3,0c-0.4-0.4-1-0.3-1.4,0.1c-0.4,0.4-0.3,1,0.1,1.4C2,35.6,4.6,35.6,6.3,34.1z"/></g><text x="0" y="63" fill="#000000" font-size="5px" font-weight="bold" font-family="'Helvetica Neue', Helvetica, Arial-Unicode, Arial, Sans-serif">Created by Vectors Market</text><text x="0" y="68" fill="#000000" font-size="5px" font-weight="bold" font-family="'Helvetica Neue', Helvetica, Arial-Unicode, Arial, Sans-serif">from the Noun Project</text></svg>