<svg xmlns="http://www.w3.org/2000/svg" xmlns:xlink="http://www.w3.org/1999/xlink" version="1.1" x="0px" y="0px" viewBox="0 0 32 40" style="enable-background:new 0 0 32 32;" xml:space="preserve"><path d="M21.5,27.8c-0.2,0.1-0.5,0.2-0.7,0.3c0.2-0.3,0.4-0.5,0.5-0.8l-1-2.4c-0.9,2-2.1,3.4-3.3,3.9V24c1,0,2.1,0.1,3.1,0.3  l-0.9-2.1c-0.7-0.1-1.4-0.1-2.2-0.2v-5h5c0,0.7-0.1,1.4-0.2,2l1.9,0.8c0.1-0.9,0.2-1.9,0.2-2.8h5c-0.1,1.6-0.5,3.1-1.2,4.5l1.8,0.8  c0.9-2,1.4-4.1,1.4-6.3c0-4.3-1.9-8.4-5.1-11.2C23.2,2.3,19.7,1,16,1c-3.7,0-7.2,1.3-9.9,3.7C2.9,7.6,1,11.7,1,16s1.9,8.4,5.1,11.2  C8.8,29.7,12.3,31,16,31c2.2,0,4.3-0.5,6.3-1.4L21.5,27.8z M26.2,7.9c1.6,2,2.6,4.5,2.8,7.1h-5c-0.1-2.1-0.4-4.1-0.9-5.9  C24.2,8.7,25.3,8.4,26.2,7.9z M24.6,6.3c0,0,0.1,0.1,0.1,0.1c-0.7,0.3-1.4,0.6-2.2,0.8c-0.5-1.2-1.1-2.3-1.7-3.2  C22.2,4.5,23.5,5.3,24.6,6.3z M17,3.2c1.3,0.5,2.6,2.1,3.5,4.4C19.4,7.8,18.2,7.9,17,8V3.2z M17,10c1.4,0,2.8-0.2,4.2-0.5  c0.4,1.6,0.7,3.4,0.8,5.5h-5V10z M7.4,6.2c1.1-1,2.4-1.8,3.8-2.3c-0.7,0.9-1.2,2-1.7,3.2C8.7,6.9,8,6.7,7.3,6.4  C7.3,6.3,7.4,6.3,7.4,6.2z M5.8,7.9c0.9,0.4,1.9,0.8,3,1.1C8.4,10.9,8.1,12.9,8,15h-5C3.3,12.4,4.2,9.9,5.8,7.9z M5.8,24.1  c-1.6-2-2.6-4.5-2.8-7.1h5c0.1,2.1,0.4,4.1,0.9,5.9C7.8,23.3,6.7,23.6,5.8,24.1z M7.4,25.7c0,0-0.1-0.1-0.1-0.1  c0.7-0.3,1.4-0.6,2.2-0.8c0.5,1.2,1.1,2.3,1.7,3.2C9.8,27.5,8.5,26.7,7.4,25.7z M15,28.8c-1.3-0.5-2.6-2.1-3.5-4.4  c1.1-0.2,2.3-0.3,3.5-0.4V28.8z M15,22c-1.4,0-2.8,0.2-4.2,0.5C10.4,20.9,10.1,19,10,17h5V22z M15,15h-5c0.1-2,0.4-3.9,0.8-5.5  c1.3,0.3,2.7,0.4,4.2,0.5V15z M15,8c-1.2,0-2.4-0.2-3.5-0.4c0.9-2.3,2.2-3.9,3.5-4.4V8z"/><polygon points="31,29.6 26.5,25.1 30.9,24 19,19 24,30.9 25.1,26.5 29.6,31 "/><text x="0" y="47" fill="#000000" font-size="5px" font-weight="bold" font-family="'Helvetica Neue', Helvetica, Arial-Unicode, Arial, Sans-serif">Created by Rahmat Hidayat</text><text x="0" y="52" fill="#000000" font-size="5px" font-weight="bold" font-family="'Helvetica Neue', Helvetica, Arial-Unicode, Arial, Sans-serif">from the Noun Project</text></svg>