<svg xmlns="http://www.w3.org/2000/svg" data-name="Layer 1" viewBox="0 0 48 60" x="0px" y="0px"><title>delivery hand package logistics</title><path d="M17,24a1,1,0,0,0,1-1V9h6v6a1,1,0,0,0,1,1h6a1,1,0,0,0,1-1V9h6V25a1,1,0,0,0,2,0V8a1,1,0,0,0-1-1H17a1,1,0,0,0-1,1V23A1,1,0,0,0,17,24ZM30,9v5H26V9Z"/><path d="M41.083,27.9048a2.6481,2.6481,0,0,0-2.1191-.624L29.9424,28.57A2.9858,2.9858,0,0,0,27,25H18a.9985.9985,0,0,0-.5146.1426L14,27.2338V26a1,1,0,0,0-1-1H7a1,1,0,0,0-1,1V40a1,1,0,0,0,1,1h6a1,1,0,0,0,1-1V39H25a.9909.9909,0,0,0,.4-.084l15.0049-6.5644a2.66,2.66,0,0,0,.6777-4.4468ZM12,39H8V27h4Zm27.6045-8.481L24.791,37H14V29.5662L18.2773,27H27a1.0009,1.0009,0,0,1,1,1,.9877.9877,0,0,1-.8324.9661L26.93,29H20a1,1,0,0,0,0,2h7c.04,0,.0766-.01.1159-.0117.0089-.0011.0168.0027.0257.0014l.0971-.0138a3.0066,3.0066,0,0,0,.4559-.0651l11.5525-1.65a.6725.6725,0,0,1,.5254.1552A.6532.6532,0,0,1,40,29.9146.66.66,0,0,1,39.6045,30.519Z"/><text x="0" y="63" fill="#000000" font-size="5px" font-weight="bold" font-family="'Helvetica Neue', Helvetica, Arial-Unicode, Arial, Sans-serif">Created by Mutualism</text><text x="0" y="68" fill="#000000" font-size="5px" font-weight="bold" font-family="'Helvetica Neue', Helvetica, Arial-Unicode, Arial, Sans-serif">from the Noun Project</text></svg>