<svg xmlns="http://www.w3.org/2000/svg" xmlns:xlink="http://www.w3.org/1999/xlink" version="1.1" x="0px" y="0px" viewBox="0 0 64 80" style="enable-background:new 0 0 64 64;" xml:space="preserve"><g><path d="M62.424,31.616C62.046,31.225,61.518,31,60.976,31H33V3.024c0-0.542-0.225-1.07-0.616-1.448   c-0.392-0.379-0.909-0.581-1.444-0.558C22.652,1.303,14.668,5.037,9.035,11.264c-5.69,6.29-8.521,14.381-7.968,22.782   c1.016,15.453,13.434,27.871,28.887,28.887C30.645,62.978,31.333,63,32.019,63c7.655,0,14.945-2.812,20.718-8.035   c6.227-5.633,9.961-13.617,10.245-21.903C63.001,32.521,62.803,32.008,62.424,31.616z M31,30.633l-19.639-6.249   C14.356,16.293,21.979,10.431,31,10.025V30.633z M10.756,26.29l19.375,6.165l-14.37,14.37C12.185,42.912,10,37.706,10,32   C10,30.025,10.266,28.112,10.756,26.29z M31.615,33.799l7.272,19.091C36.719,53.606,34.405,54,32,54   c-5.706,0-10.912-2.185-14.825-5.761L31.615,33.799z M40.757,52.177l-7.306-19.178l20.524-0.005   C53.591,41.587,48.254,48.911,40.757,52.177z M51.395,53.482c-5.885,5.323-13.448,7.976-21.31,7.454   C15.63,59.987,4.013,48.37,3.063,33.915c-0.517-7.857,2.131-15.425,7.454-21.31C15.79,6.778,23.259,3.283,31,3.024v5.001   C18.229,8.552,8,19.102,8,32c0,13.233,10.767,24,24,24c12.9,0,23.451-10.233,23.975-23.007l5.009-0.001   C60.717,40.741,57.222,48.21,51.395,53.482z"/><path d="M32,46c0-1.654-1.346-3-3-3s-3,1.346-3,3s1.346,3,3,3S32,47.654,32,46z M29,47c-0.552,0-1-0.448-1-1s0.448-1,1-1   s1,0.448,1,1S29.552,47,29,47z"/><path d="M45,37c-1.654,0-3,1.346-3,3s1.346,3,3,3s3-1.346,3-3S46.654,37,45,37z M45,41c-0.552,0-1-0.448-1-1s0.448-1,1-1   s1,0.448,1,1S45.552,41,45,41z"/><path d="M17,37c1.654,0,3-1.346,3-3s-1.346-3-3-3s-3,1.346-3,3S15.346,37,17,37z M17,33c0.552,0,1,0.448,1,1s-0.448,1-1,1   s-1-0.448-1-1S16.448,33,17,33z"/><path d="M23,22c1.654,0,3-1.346,3-3s-1.346-3-3-3s-3,1.346-3,3S21.346,22,23,22z M23,18c0.552,0,1,0.448,1,1s-0.448,1-1,1   s-1-0.448-1-1S22.448,18,23,18z"/><path d="M45,15c-1.654,0-3,1.346-3,3s1.346,3,3,3s3-1.346,3-3S46.654,15,45,15z M45,19c-0.552,0-1-0.448-1-1s0.448-1,1-1   s1,0.448,1,1S45.552,19,45,19z"/><path d="M62.427,28.381c0.378-0.393,0.573-0.906,0.552-1.445c-0.268-6.808-3.068-13.21-7.887-18.027   c-4.817-4.818-11.22-7.619-18.026-7.887C36.523,1,36.012,1.195,35.619,1.573C35.226,1.951,35,2.48,35,3.025V29h25.975   C61.52,29,62.049,28.774,62.427,28.381z M36.99,9.05c4.652,0.249,9.143,2.213,12.446,5.515c2.397,2.398,4.112,5.401,4.961,8.686   l1.936-0.5c-0.937-3.629-2.832-6.949-5.482-9.6C47.174,9.475,42.167,7.3,36.988,7.05l-0.002-4.03   c6.303,0.248,12.23,2.842,16.691,7.303S60.732,20.711,60.975,27h-4.012c-0.034-0.721-0.092-1.442-0.2-2.15l-1.977,0.301   c0.093,0.61,0.144,1.229,0.177,1.85H36.999L36.99,9.05z"/><rect x="39" y="23" width="2" height="2"/><rect x="49" y="21" width="2" height="2"/><rect x="27" y="26" width="2" height="2"/><rect x="28" y="19" width="2" height="2"/><rect x="15" y="22" width="2" height="2"/><rect x="13" y="39" width="2" height="2"/><rect x="22" y="35" width="2" height="2"/><rect x="21" y="46" width="2" height="2"/><rect x="31" y="50" width="2" height="2"/><rect x="31" y="40" width="2" height="2"/><rect x="40" y="43" width="2" height="2"/><rect x="49" y="37" width="2" height="2"/><rect x="37" y="35" width="2" height="2"/><rect x="39" y="11" width="2" height="2"/></g><text x="0" y="79" fill="#000000" font-size="5px" font-weight="bold" font-family="'Helvetica Neue', Helvetica, Arial-Unicode, Arial, Sans-serif">Created by Eucalyp</text><text x="0" y="84" fill="#000000" font-size="5px" font-weight="bold" font-family="'Helvetica Neue', Helvetica, Arial-Unicode, Arial, Sans-serif">from the Noun Project</text></svg>