<svg xmlns="http://www.w3.org/2000/svg" viewBox="0 0 64 80" x="0px" y="0px"><title>restaurant-breakfast-lunch-dinner-cafe</title><g><path d="M8,19a5,5,0,0,0,4-2,5,5,0,0,0,8,0,5,5,0,0,0,8,0,5,5,0,0,0,8,0,5,5,0,0,0,8,0,5,5,0,0,0,8,0,5,5,0,0,0,9-3V11a.7.7,0,0,0,0-.14.34.34,0,0,0,0-.1l-2-8A1,1,0,0,0,58,2H6a1,1,0,0,0-1,.76l-2,8a.34.34,0,0,0,0,.1A.7.7,0,0,0,3,11v3A5,5,0,0,0,8,19Zm0-2a3,3,0,0,1-3-3V12h6v2A3,3,0,0,1,8,17Zm42.87-7H45V4h5.12ZM43,10H37V4h6Zm-8,0H29V4h6Zm-8,0H21V4h6Zm-8,0H13.13l.75-6H19Zm-3,7a3,3,0,0,1-3-3V12h6v2A3,3,0,0,1,16,17Zm8,0a3,3,0,0,1-3-3V12h6v2A3,3,0,0,1,24,17Zm8,0a3,3,0,0,1-3-3V12h6v2A3,3,0,0,1,32,17Zm8,0a3,3,0,0,1-3-3V12h6v2A3,3,0,0,1,40,17Zm8,0a3,3,0,0,1-3-3V12h6v2A3,3,0,0,1,48,17Zm11-3a3,3,0,0,1-6,0V12h6Zm-.28-4H52.88l-.75-6h5.09ZM6.78,4h5.09l-.75,6H5.28Z"/><path d="M55.63,53a3,3,0,0,0,2.82-2.64l1.53-13A3,3,0,0,0,57,34a3,3,0,0,0-3,2.56L52.39,47H43.25a3,3,0,0,0,0,6h.61l-2.33,7H35V44H46a1,1,0,0,0,1-1V39a1,1,0,0,0-1-1H18a1,1,0,0,0-1,1v4a1,1,0,0,0,1,1H29V60H22.47l-2.33-7h.61a3,3,0,0,0,0-6H11.61L10,36.56A3,3,0,0,0,7,34a3,3,0,0,0-3,3.37l1.53,13A3,3,0,0,0,8.37,53L6,60H2v2H62V60H58ZM42.25,50a1,1,0,0,1,1-1h10a1,1,0,0,0,1-.85L56,36.86A1,1,0,0,1,57,36a1,1,0,0,1,.76.34,1,1,0,0,1,.25.8l-1.52,13a1,1,0,0,1-1,.88H43.25A1,1,0,0,1,42.25,50ZM46,53h7.56l2.33,7H43.64ZM19,40H45v2H19ZM7.53,50.12,6,37.14a1,1,0,0,1,.25-.8A1,1,0,0,1,7,36a1,1,0,0,1,1,.86L9.76,48.15a1,1,0,0,0,1,.85h10a1,1,0,0,1,0,2H8.53A1,1,0,0,1,7.53,50.12ZM10.47,53H18l2.33,7H8.14ZM31,60V44h2V60Z"/></g><text x="0" y="79" fill="#000000" font-size="5px" font-weight="bold" font-family="'Helvetica Neue', Helvetica, Arial-Unicode, Arial, Sans-serif">Created by monkik</text><text x="0" y="84" fill="#000000" font-size="5px" font-weight="bold" font-family="'Helvetica Neue', Helvetica, Arial-Unicode, Arial, Sans-serif">from the Noun Project</text></svg>