<svg xmlns="http://www.w3.org/2000/svg" xmlns:xlink="http://www.w3.org/1999/xlink" version="1.1" x="0px" y="0px" viewBox="0 0 100 125" enable-background="new 0 0 100 100" xml:space="preserve"><path fill="#000000" d="M31.906,91.007H18.531c-1.104,0-2,0.896-2,2s0.896,2,2,2h60.662c1.104,0,2-0.896,2-2s-0.896-2-2-2H65.818  c12.498-6.247,21.104-19.164,21.104-34.061v-1.354c0-1.104-0.896-2-2-2H12.801c-1.104,0-2,0.896-2,2v1.354  C10.801,71.843,19.408,84.76,31.906,91.007z M82.917,57.592c-0.346,18.484-15.489,33.415-34.055,33.415S15.153,76.076,14.807,57.592  H82.917z"/><path fill="#000000" d="M17.507,50.388c1.104,0,2-0.896,2-2c0-3.788,3.081-6.869,6.868-6.869c0.025,0,0.048-0.006,0.072-0.007  c-0.083,0.541-0.14,1.091-0.14,1.656c0,1.104,0.896,2,2,2s2-0.896,2-2c0-3.787,3.081-6.868,6.868-6.868  c1.376,0,2.704,0.405,3.838,1.172c0.918,0.619,2.159,0.376,2.777-0.538c0.618-0.915,0.378-2.159-0.537-2.777  c-0.95-0.642-1.986-1.119-3.072-1.431c0.085-0.223,0.137-0.462,0.137-0.715c0-3.787,3.081-6.868,6.868-6.868  c3.36,0,6.158,2.425,6.749,5.616c-0.279,0.344-0.452,0.776-0.452,1.252c0,1.104,0.896,2,2,2c3.759,0,6.886,2.73,7.52,6.31  c-0.213,0.311-0.33,0.66-0.348,1.016c-0.438,0.551-0.578,1.312-0.289,2.008c0.425,1.02,1.597,1.505,2.615,1.078  c2.515-1.046,5.286-1.053,7.805-0.014c2.519,1.038,4.481,2.994,5.528,5.508c0.32,0.769,1.064,1.232,1.848,1.232  c0.256,0,0.517-0.049,0.768-0.154c1.02-0.424,1.502-1.595,1.078-2.615c-1.458-3.501-4.191-6.225-7.697-7.669  c-1.807-0.745-3.707-1.097-5.603-1.07l22.102-27.003c0.699-0.854,0.573-2.115-0.281-2.814c-0.854-0.7-2.114-0.574-2.814,0.281  l-21.731,26.55c-0.303-0.633-0.659-1.235-1.067-1.799L80.419,5.952c0.521-0.974,0.156-2.186-0.817-2.708  c-0.972-0.521-2.185-0.155-2.708,0.817L61.929,31.964c-1.203-0.803-2.564-1.387-4.025-1.697c-0.839-5.165-5.318-9.125-10.716-9.125  c-5.993,0-10.868,4.875-10.868,10.868c0,0.113,0.015,0.222,0.033,0.33c-3.764,0.284-7.001,2.484-8.721,5.634  c-0.344-0.28-0.778-0.456-1.256-0.456c-5.993,0-10.868,4.875-10.868,10.869C15.507,49.492,16.403,50.388,17.507,50.388z"/><path fill="#000000" d="M43.35,41.438c-2.524,0.213-4.815,1.396-6.45,3.332c-0.712,0.844-0.606,2.106,0.238,2.818  c0.375,0.317,0.833,0.472,1.289,0.472c0.568,0,1.134-0.241,1.529-0.709c0.945-1.12,2.27-1.804,3.729-1.927  c1.463-0.123,2.881,0.33,4.001,1.275c0.842,0.713,2.105,0.606,2.818-0.237c0.712-0.844,0.606-2.106-0.238-2.818  C48.333,42.009,45.884,41.225,43.35,41.438z"/><text x="0" y="115" fill="#000000" font-size="5px" font-weight="bold" font-family="'Helvetica Neue', Helvetica, Arial-Unicode, Arial, Sans-serif">Created by Yasir B. Eryılmaz</text><text x="0" y="120" fill="#000000" font-size="5px" font-weight="bold" font-family="'Helvetica Neue', Helvetica, Arial-Unicode, Arial, Sans-serif">from the Noun Project</text></svg>