<svg width="9" height="15" viewBox="0 0 9 15" fill="none" xmlns="http://www.w3.org/2000/svg">
<path d="M2.41186 10.1767L3.66856 11.4569L2.58958 14.431C2.46264 14.7672 2.15798 14.9612 1.82794 14.9612C1.73908 14.9612 1.63753 14.9483 1.54867 14.9095C1.12977 14.7543 0.913977 14.2759 1.0663 13.8491L2.41186 10.1767Z" fill="#F84339"/>
<path d="M0.0762087 6.9181L0.825151 5.46983C1.01556 5.0819 1.32021 4.77155 1.67564 4.55172C3.38933 3.51724 3.60512 3.53017 3.82092 3.5431L4.98876 3.62069C5.34419 3.63362 5.58538 3.72414 6.77861 5.50862C6.82938 5.57328 6.89285 5.625 6.98171 5.63793L8.40343 5.85776C8.78425 5.92241 9.05082 6.28448 8.98735 6.67241C8.92388 7.06034 8.56845 7.3319 8.18763 7.26724L6.76591 7.06034C6.29624 6.98276 5.87734 6.72414 5.62346 6.33621C5.55999 6.23276 5.50921 6.15517 5.44574 6.07759L4.53178 9.02586L5.80117 10.319C5.99158 10.5129 6.14391 10.7586 6.23277 11.0172L7.2102 13.9138C7.36253 14.3405 7.13404 14.819 6.71514 14.9483C6.62628 14.9741 6.55011 15 6.44856 15C6.10583 15 5.80117 14.7802 5.67423 14.444L4.70949 11.5474C4.68411 11.5216 4.67141 11.5086 4.65872 11.4698L2.3992 9.15517C2.06916 8.81896 1.95491 8.36638 2.04377 7.92672L2.53883 5.68966C2.48806 5.71552 2.44997 5.74138 2.3865 5.78017C2.24687 5.85776 2.13263 5.98707 2.05646 6.12931L1.32021 7.57759C1.19327 7.81034 0.95209 7.95259 0.698211 7.95259C0.583966 7.95259 0.482415 7.92672 0.368169 7.875C0.0254329 7.68103 -0.0888124 7.26724 0.0762087 6.9181Z" fill="#F84339"/>
<path d="M4.64607 3.18103C5.50838 3.18103 6.20743 2.46894 6.20743 1.59052C6.20743 0.712099 5.50838 0 4.64607 0C3.78376 0 3.08472 0.712099 3.08472 1.59052C3.08472 2.46894 3.78376 3.18103 4.64607 3.18103Z" fill="#F84339"/>
</svg>
