<svg width="83" height="83" viewBox="0 0 83 83" fill="none" xmlns="http://www.w3.org/2000/svg">
<path d="M8.30001 23.5139C10.4746 23.5139 12.5247 22.493 13.8361 20.75C16.1269 23.8044 20.4595 24.4269 23.5222 22.1361C24.0451 21.746 24.5099 21.2812 24.9083 20.75C27.1991 23.8044 31.5317 24.4269 34.5944 22.1361C35.1173 21.746 35.5821 21.2812 35.9805 20.75C38.2713 23.8044 42.6039 24.4269 45.6666 22.1361C46.1895 21.746 46.6543 21.2812 47.0527 20.75C49.3435 23.8044 53.6761 24.4269 56.7388 22.1361C57.2617 21.746 57.7265 21.2812 58.1249 20.75C60.4157 23.8044 64.7483 24.4269 67.811 22.1361C68.3339 21.746 68.7987 21.2812 69.1971 20.75C71.4879 23.8044 75.8205 24.4269 78.8832 22.1361C80.6262 20.833 81.6471 18.7829 81.6471 16.6V12.45C81.6554 12.3836 81.6554 12.3172 81.6471 12.2591C81.6554 12.2093 81.6554 12.1678 81.6471 12.118L78.85 1.0541C78.6923 0.423297 78.1196 -0.0166034 77.4639 -3.42718e-06H5.53611C4.88041 -0.0166034 4.30771 0.423297 4.15001 1.0541L1.38611 12.118C1.37781 12.1678 1.37781 12.2093 1.38611 12.2591C1.37781 12.3255 1.37781 12.3919 1.38611 12.45V16.6C1.38611 20.418 4.48201 23.5139 8.30001 23.5139ZM8.30001 20.75C6.00921 20.75 4.15001 18.8908 4.15001 16.6V13.8361H12.45V16.6C12.45 18.8908 10.5908 20.75 8.30001 20.75ZM67.6035 11.0639H59.4861V2.7639H66.566L67.6035 11.0639ZM56.7139 11.0639H48.4139V2.7639H56.7139V11.0639ZM45.65 11.0639H37.35V2.7639H45.65V11.0639ZM34.5861 11.0639H26.2861V2.7639H34.5861V11.0639ZM23.5139 11.0639H15.3965L16.434 2.7639H23.5139V11.0639ZM19.3639 20.75C17.0731 20.75 15.2139 18.8908 15.2139 16.6V13.8361H23.5139V16.6C23.5139 18.8908 21.6547 20.75 19.3639 20.75ZM30.4361 20.75C28.1453 20.75 26.2861 18.8908 26.2861 16.6V13.8361H34.5861V16.6C34.5861 18.8908 32.7269 20.75 30.4361 20.75ZM41.5 20.75C39.2092 20.75 37.35 18.8908 37.35 16.6V13.8361H45.65V16.6C45.65 18.8908 43.7908 20.75 41.5 20.75ZM52.5639 20.75C50.2731 20.75 48.4139 18.8908 48.4139 16.6V13.8361H56.7139V16.6C56.7139 18.8908 54.8547 20.75 52.5639 20.75ZM63.6361 20.75C61.3453 20.75 59.4861 18.8908 59.4861 16.6V13.8361H67.7861V16.6C67.7861 18.8908 65.9269 20.75 63.6361 20.75ZM78.85 16.6C78.85 18.8908 76.9908 20.75 74.7 20.75C72.4092 20.75 70.55 18.8908 70.55 16.6V13.8361H78.85V16.6ZM78.4599 11.0639H70.384L69.3465 2.7639H76.3849L78.4599 11.0639ZM6.61511 2.7639H13.6535L12.616 11.0639H4.54011L6.61511 2.7639Z" fill="#F84339"/>
<path d="M74.1854 70.55C76.2023 70.4421 77.8457 68.8983 78.0864 66.898L80.2029 48.9119C80.4768 46.6377 78.8583 44.571 76.5841 44.2971C76.4181 44.2805 76.2521 44.2639 76.0861 44.2639C74.0111 44.239 72.2432 45.7496 71.9361 47.808L69.7034 62.25H57.0625C54.7717 62.25 52.9125 64.1092 52.9125 66.4C52.9125 68.6908 54.7717 70.55 57.0625 70.55H57.9091L54.6887 80.2361H45.65V58.1H60.8639C61.6275 58.1 62.25 57.4775 62.25 56.7139V51.1778C62.25 50.4142 61.6275 49.7917 60.8639 49.7917H22.1361C21.3725 49.8 20.75 50.4225 20.75 51.1861V56.7222C20.75 57.4858 21.3725 58.1083 22.1361 58.1083H37.35V80.2444H28.3196L25.0909 70.55H25.9375C28.2283 70.55 30.0875 68.6908 30.0875 66.4C30.0875 64.1092 28.2283 62.25 25.9375 62.25H13.2966L11.0722 47.808C10.7651 45.7579 8.9972 44.2473 6.9222 44.2639C4.6314 44.2473 2.7556 46.0899 2.739 48.3807C2.739 48.5633 2.7473 48.7459 2.7722 48.9202L4.8887 66.9063C5.1377 68.9149 6.7977 70.4504 8.8146 70.5417L5.5361 80.2361H0V83H83V80.2361H77.4639L74.1854 70.55ZM55.6764 66.4C55.6764 65.6364 56.2989 65.0139 57.0625 65.0139H70.8986C71.5875 65.0222 72.1768 64.5242 72.2847 63.8353L74.7 48.223C74.7996 47.5341 75.3889 47.0278 76.0861 47.0361C76.4845 47.0361 76.8746 47.2021 77.1402 47.5092C77.4141 47.808 77.5386 48.2147 77.4888 48.6131L75.3889 66.5992C75.3059 67.2964 74.7083 67.8193 74.0028 67.8193H57.0708C56.3072 67.8193 55.6847 67.1968 55.6847 66.4332C55.6764 66.4166 55.6764 66.4083 55.6764 66.4ZM60.8639 70.55H71.3219L74.5423 80.2361H57.602L60.8639 70.55ZM23.5139 52.5639H59.4778V55.3278H23.5139V52.5639ZM7.6526 66.566L5.5361 48.6131C5.4863 48.2147 5.6108 47.808 5.8847 47.5092C6.1503 47.2104 6.5238 47.0361 6.9222 47.0361C7.6194 47.0278 8.2087 47.5341 8.3083 48.223L10.7402 63.8436C10.8398 64.5242 11.4374 65.0305 12.1263 65.0222H25.9624C26.726 65.0222 27.3485 65.6447 27.3485 66.4083C27.3485 67.1719 26.726 67.7944 25.9624 67.7944H9.0304C8.3332 67.7861 7.7356 67.2632 7.6526 66.566ZM11.7196 70.55H22.1361L25.3565 80.2361H8.4909L11.7196 70.55ZM40.1139 80.2361V58.1H42.8778V80.2361H40.1139Z" fill="#F84339"/>
</svg>
