<svg width="100" height="100" viewBox="0 0 100 100" fill="none" xmlns="http://www.w3.org/2000/svg">
<path d="M90.1886 52.2089C91.7384 49.0567 92.1587 45.4841 91.4363 42.0955L97.9641 38.1552C98.2137 37.9976 98.4501 37.8268 98.6471 37.6298C99.711 36.6053 100.144 35.0949 99.711 33.5845C99.5271 32.9671 99.1593 32.4155 98.7128 31.9427L98.3975 31.6143C98.1217 31.3254 97.8065 31.1021 97.4781 30.9182L97.6095 30.7868C98.4369 29.9988 98.8966 28.948 98.9229 27.8054C98.9623 26.1373 98.0429 24.6006 96.4274 23.7994C94.8644 23.0376 92.9599 23.4579 91.699 24.6531L91.594 24.7451C91.4232 24.4036 91.2131 24.0752 90.9372 23.7863L90.6352 23.471C90.031 22.8275 89.2561 22.3415 88.3892 22.2101C87.102 22 85.8411 22.3809 84.9349 23.2477C84.7247 23.4448 84.5277 23.6812 84.3701 23.9176L80.1277 30.2483C79.5235 30.0907 78.9193 29.9594 78.302 29.8806C77.5008 24.2854 75.7934 20.8048 75.7146 20.6472L75.0841 19.3731L73.1271 20.3582L71.0388 6.81672C70.382 2.6006 66.6256 -0.380886 62.265 0.0394121C58.5612 0.407173 55.6716 3.4412 55.1068 7.13194L53.0447 20.5158L51.2453 19.1104L50.4704 20.6603C50.3522 20.8967 47.8041 26.0848 47.5152 33.9916C45.7027 33.2955 43.7719 32.8489 41.7492 32.7176C41.5259 25.231 40.3964 18.4537 34.7092 18.4537V21.2907C36.7451 21.2907 37.8089 23.471 38.3606 26.5576C36.6137 25.0471 34.3546 24.1277 31.8722 24.1277H21.9295V25.5463C21.9295 30.5242 25.6203 34.6483 30.4012 35.3576C24.5039 38.8119 20.511 45.1952 20.511 52.511C20.511 52.5504 20.5242 52.5898 20.5242 52.6292C14.8895 54.5337 12 56.8847 12 59.6167C12 75.2596 24.7403 87.9999 40.3833 87.9999H71.6035C87.2596 87.9999 99.9999 75.2596 99.9999 59.6167C99.9999 56.6746 96.7032 54.1791 90.1886 52.2089ZM97.1629 59.6167C97.1629 62.3617 87.8638 65.9343 71.9188 67.4185L84.8823 58.3689C85.539 57.9092 86.1564 57.4101 86.7211 56.8585L86.9576 56.622C87.588 56.0179 88.1396 55.3743 88.6387 54.7044C94.9038 56.5038 97.1629 58.4477 97.1629 59.6167ZM60.2161 51.6441L70.5791 62.0071C70.5922 62.0202 70.6316 62.0202 70.6447 62.0071L72.5886 60.0632C72.6017 60.0501 72.6017 60.0107 72.5886 59.9976L61.2668 48.6758L60.0716 49.871C59.914 48.6495 59.6513 47.4674 59.2704 46.3379C59.2704 46.3247 59.2704 46.3116 59.2835 46.2985L65.9032 37.6955C66.2447 37.2489 66.6256 36.8286 67.0328 36.4346C71.6692 31.9952 78.9719 31.2859 84.0286 35.2525C90.2937 40.1647 90.5695 49.2931 85.0137 54.5862L84.7773 54.8226C84.3044 55.2692 83.8053 55.6895 83.2668 56.0573L66.3761 67.8256C66.3629 67.8256 66.3629 67.8388 66.3498 67.8388C63.1056 68.0226 59.6644 68.1277 56 68.1277C54.8835 68.1277 53.7803 68.1146 52.7033 68.1014C57.3922 64.3844 60.2555 58.671 60.2555 52.5241C60.2555 52.2221 60.2292 51.9331 60.2161 51.6441ZM95.5474 33.2036C95.8495 33.2167 96.1384 33.3349 96.3486 33.5582L96.7426 33.9654C96.9528 34.1886 97.071 34.4776 97.0578 34.7797C97.0447 35.0818 96.9265 35.3707 96.7032 35.5809C96.6507 35.6334 96.585 35.6859 96.5062 35.7253L90.5826 39.2979C90.3987 38.8776 90.2149 38.4573 89.9916 38.0501L94.7331 33.5188C94.9564 33.3086 95.2059 33.2167 95.5474 33.2036ZM95.705 26.7152C95.9677 26.991 96.1122 27.3457 96.099 27.7266C96.0859 28.1074 95.9283 28.4621 95.6525 28.7248L88.4155 35.6334C88.1265 35.2656 87.8244 34.8979 87.4829 34.5564C87.1546 34.2149 86.7999 33.8865 86.4453 33.5845L90.8059 29.4209L93.6823 26.6758C94.2602 26.1242 95.1665 26.1504 95.705 26.7152ZM86.7474 25.4937C86.7868 25.428 86.8393 25.3755 86.905 25.3098C87.1283 25.0997 87.4041 24.9946 87.7193 24.9946C88.0214 25.0077 88.3104 25.126 88.5205 25.3492L88.9014 25.7564C89.3349 26.203 89.3217 26.9254 88.862 27.3588L84.1074 31.8901C83.7134 31.6537 83.3062 31.4436 82.8859 31.2465L86.7474 25.4937ZM75.4256 29.7624C71.8137 29.9462 68.2411 31.3516 65.4173 34.0442L65.1546 34.2937C64.5898 34.8322 64.0644 35.4233 63.5785 36.0406L57.9832 43.317C56.2364 39.994 53.5701 37.2227 50.3259 35.3445C50.3259 35.1606 50.3259 35.1212 50.3391 34.9373L73.7313 23.2346C74.2304 24.548 74.9528 26.8203 75.4256 29.7624ZM57.957 7.25015C58.3904 4.38687 61.0698 2.40359 64.0644 2.92896C66.2841 3.32299 67.9259 5.22747 68.2674 7.44717L70.4608 21.6979L60.794 26.5313L55.6059 22.4991L57.957 7.25015ZM52.3486 23.563L57.9832 27.9498L50.523 31.68C50.9038 28.0418 51.7444 25.2179 52.3486 23.563ZM24.911 26.9648H31.8591C35.2871 26.9648 38.1504 29.4077 38.8071 32.6388H31.8591C28.4442 32.6388 25.5809 30.2089 24.911 26.9648ZM38.9648 35.5546C38.9779 36.4871 38.9779 37.4197 38.9779 38.3259V40.9397C38.0848 40.6507 37.5594 40.1385 37.5594 39.7444H34.7224C34.7224 42.1349 37.2179 44 40.3964 44C43.5749 44 46.0704 42.1349 46.0704 39.7444H43.2334C43.2334 40.1385 42.708 40.6507 41.8149 40.9397V38.3259C41.8149 37.4065 41.8149 36.4871 41.8018 35.5546C50.5361 36.277 57.4185 43.6059 57.4185 52.511C57.4185 59.1176 53.5701 65.1331 47.6071 67.9307C40.8298 67.6155 34.9457 66.9588 30.1122 66.0788C25.883 62.874 23.3612 57.8173 23.3612 52.511C23.3612 43.6059 30.2304 36.2901 38.9648 35.5546ZM20.7737 55.5319C21.3122 58.9994 22.757 62.2567 24.9373 64.9755C18.4227 63.3337 14.837 61.311 14.837 59.6167C14.837 58.671 16.4394 57.0949 20.7737 55.5319ZM71.6167 85.1629H40.3833C27.8663 85.1629 17.4376 76.1002 15.2704 64.2005C22.2185 68.6531 39.1749 70.9647 56 70.9647C72.825 70.9647 89.7814 68.6531 96.7295 64.2005C94.5623 76.1002 84.1337 85.1629 71.6167 85.1629Z" fill="#F84339"/>
<path d="M90.3988 69.5199C89.7552 69.1785 88.9278 69.3755 88.5469 69.9928C84.9349 75.877 78.5517 79.4758 71.6167 79.4758H70.1982V82.3128H71.6167C79.5236 82.3128 86.7869 78.228 90.9242 71.5426C91.3576 70.8465 91.1343 69.914 90.3988 69.5199Z" fill="#F84339"/>
<path d="M60.2555 7.09253C61.0436 7.09253 61.674 7.72298 61.674 8.51104C61.674 9.29909 61.0436 9.92954 60.2555 9.92954C59.4675 9.92954 58.837 9.29909 58.837 8.51104C58.837 7.73611 59.4806 7.09253 60.2555 7.09253Z" fill="#F84339"/>
<path d="M65.9296 7.09253C66.7177 7.09253 67.3481 7.72298 67.3481 8.51104C67.3481 9.29909 66.7177 9.92954 65.9296 9.92954C65.1416 9.92954 64.5111 9.29909 64.5111 8.51104C64.5111 7.73611 65.1547 7.09253 65.9296 7.09253Z" fill="#F84339"/>
<path d="M60.2555 12.7797C61.0436 12.7797 61.674 13.4101 61.674 14.1982C61.674 14.9863 61.0436 15.6167 60.2555 15.6167C59.4675 15.6167 58.837 14.9863 58.837 14.1982C58.837 13.4101 59.4806 12.7797 60.2555 12.7797Z" fill="#F84339"/>
<path d="M65.9296 12.7797C66.7177 12.7797 67.3481 13.4101 67.3481 14.1982C67.3481 14.9863 66.7177 15.6167 65.9296 15.6167C65.1416 15.6167 64.5111 14.9863 64.5111 14.1982C64.5111 13.4101 65.1547 12.7797 65.9296 12.7797Z" fill="#F84339"/>
<path d="M60.2555 18.4537C61.0436 18.4537 61.674 19.0842 61.674 19.8722C61.674 20.6603 61.0436 21.2907 60.2555 21.2907C59.4675 21.2907 58.837 20.6603 58.837 19.8722C58.837 19.0842 59.4806 18.4537 60.2555 18.4537Z" fill="#F84339"/>
<path d="M65.9296 18.4537C66.7177 18.4537 67.3481 19.0842 67.3481 19.8722C67.3481 20.6603 66.7177 21.2907 65.9296 21.2907C65.1416 21.2907 64.5111 20.6603 64.5111 19.8722C64.5111 19.0842 65.1547 18.4537 65.9296 18.4537Z" fill="#F84339"/>
<path d="M29.1666 46.9552L28.8251 46.7844C28.1684 46.4561 27.3672 46.7844 27.1046 47.4674C27.0389 47.6513 26.9732 47.8352 26.9075 48.0322C26.6711 48.7283 27.0783 49.4901 27.8007 49.6477L28.1684 49.7265C28.7726 49.8579 29.4031 49.5295 29.6001 48.9385C29.6526 48.7809 29.7051 48.6233 29.7708 48.4656C29.9941 47.8877 29.7314 47.231 29.1666 46.9552Z" fill="#F84339"/>
<path d="M34.6042 64.1743L34.8538 63.662C35.1165 63.1498 34.9457 62.5062 34.4597 62.2041C31.3732 60.3259 29.3768 57.1211 29.0747 53.5092C29.0221 52.9313 28.523 52.511 27.9451 52.511H27.3803C26.6974 52.511 26.1851 53.102 26.2508 53.785C26.6448 58.277 29.1272 62.2698 32.9756 64.6208C33.5535 64.9755 34.3021 64.7653 34.6042 64.1743Z" fill="#F84339"/>
<path d="M71.6167 38.3259C72.1683 37.7743 73.0746 37.7743 73.6262 38.3259L82.9779 47.6776C83.5295 48.2292 83.5295 49.1355 82.9779 49.6871C82.4262 50.2388 81.52 50.2388 80.9683 49.6871L71.6167 40.3355C71.0519 39.7707 71.0519 38.8776 71.6167 38.3259Z" fill="#F84339"/>
<path d="M65.9296 44C66.4812 43.4483 67.3875 43.4483 67.9391 44L77.2908 53.3516C77.8424 53.9032 77.8424 54.8095 77.2908 55.3611C76.7391 55.9128 75.8329 55.9128 75.2812 55.3611L65.9296 46.0095C65.378 45.4579 65.378 44.5516 65.9296 44Z" fill="#F84339"/>
<path d="M65.9296 79.4889C66.7177 79.4889 67.3481 80.1193 67.3481 80.9074C67.3481 81.6955 66.7177 82.3259 65.9296 82.3259C65.1416 82.3259 64.5111 81.6955 64.5111 80.9074C64.5111 80.1193 65.1547 79.4889 65.9296 79.4889Z" fill="#F84339"/>
</svg>
