<svg width="10" height="14" viewBox="0 0 10 14" fill="none" xmlns="http://www.w3.org/2000/svg">
<g clip-path="url(#clip0)">
<path d="M4.8194 12.4486L4.98694 12.2595C5.17026 12.0551 9.625 7.10784 9.625 4.62757C9.64077 2.07162 7.48042 0 4.8194 0C2.15838 0 0 2.07162 0 4.62568C0 7.10784 4.45474 12.0551 4.63806 12.2595L4.8194 12.4486Z" fill="white"/>
<path d="M7.94562 11.2416L7.94167 11.2397C7.73274 11.1905 7.52577 11.2946 7.44692 11.497C7.39567 11.6976 7.50409 11.8962 7.71302 11.97C8.58426 12.197 8.68282 12.4449 8.68479 12.4449C8.65719 12.6322 7.38779 13.2432 4.80167 13.2432C2.21556 13.2432 0.948125 12.6322 0.918559 12.4562C0.918559 12.4543 1.025 12.2235 1.89032 11.9908C1.99479 11.9662 2.08349 11.8981 2.13474 11.8035C2.18599 11.7108 2.19388 11.603 2.1584 11.5159C2.13277 11.4157 2.06181 11.3305 1.96325 11.2814C1.86667 11.2322 1.75432 11.2246 1.66167 11.2586C0.396211 11.6049 0.13208 12.0968 0.13208 12.4468C0.13208 13.5176 2.47772 13.9981 4.80364 13.9981C7.12957 13.9981 9.47521 13.5176 9.47521 12.4505C9.49492 11.9397 8.99623 11.5443 7.94562 11.2416Z" fill="white"/>
</g>
<defs>
<clipPath id="clip0">
<rect width="9.625" height="14" fill="white"/>
</clipPath>
</defs>
</svg>
