<svg id="Layer_1" data-name="Layer 1" xmlns="http://www.w3.org/2000/svg" viewBox="0 0 198.33 96.05"><title>Artboard 28</title><path d="M0,3A3,3,0,0,1,6,3V24h6V3a3,3,0,0,1,6,0V24h6V3a3,3,0,0,1,6,0V39a9,9,0,0,1-9,9H20l3.25,39.06A8.25,8.25,0,0,1,15.7,96c-.23,0-.47,0-.7,0h0a8.25,8.25,0,0,1-8.26-8.24c0-.23,0-.47,0-.7L10,48H9a9,9,0,0,1-9-9Z"/><path d="M49,87.74a8.78,8.78,0,0,0,.12,1.45,8.26,8.26,0,1,0,16.28-2.8L59,48h2a6,6,0,0,0,6-6V15A15,15,0,0,0,52,0a3,3,0,0,0-3,3Z"/><circle cx="35" cy="57" r="8"/><path d="M98.79,39.06c6.44,0,11.72,1.9,15.83,5.6s6.13,8.65,6.13,15.09v24.8c0,5-3.28,8-7.5,8a6.76,6.76,0,0,1-7-4.75,18,18,0,0,1-13.2,5.39c-5.17,0-9.28-1.48-12.56-4.44a15,15,0,0,1-4.85-11.5c0-5.38,1.9-9.39,5.8-12.14s8.87-4.22,14.67-4.43l9.5-.42q0-7.92-7.91-7.92A14.91,14.91,0,0,0,89.08,55c-3.9,2.64-7.7,2.32-9.92-.63-2.43-2.85-1.69-7.08,1.8-9.93C85.49,40.86,91.51,39.06,98.79,39.06Zm-2,41.48a14.65,14.65,0,0,0,8.86-3.17V71.25L99,71.78c-5.48.32-8.23,1.8-8.23,4.64C90.77,79,93,80.54,96.79,80.54Z"/><path d="M148.93,73.05l-4.65,4.54v7c.64,10.56-15.62,10.56-15,0V25.66c-.64-10.56,15.62-10.56,15,0V57.74l15.73-15c3.48-3.28,7.81-3.91,10.87-1.38s3.38,7.39-.32,11.09L159.48,62.7,173,79.8c3.06,4.22,2.32,8.66-1.05,11.3s-8.24,1.79-11.09-2.33Z"/><path d="M189.56,16.9a8.61,8.61,0,0,1,8.77,8.76,8.79,8.79,0,0,1-8.77,8.65,8.71,8.71,0,0,1,0-17.41Zm0,75.67c-4.32,0-7.49-3.06-7.49-8V47.82c0-5,3.17-8,7.49-8s7.5,3.06,7.5,8V84.55C197.06,89.51,193.89,92.57,189.56,92.57Z"/></svg>