<svg id="Layer_1" data-name="Layer 1" xmlns="http://www.w3.org/2000/svg" viewBox="0 0 160 160"><title>Artboard 27</title><path d="M46.5,36a3,3,0,0,1,6,0V57h6V36a3,3,0,0,1,6,0V57h6V36a3,3,0,0,1,6,0V72a9,9,0,0,1-9,9h-1L69.75,120A8.27,8.27,0,0,1,62.2,129l-.7,0h0a8.25,8.25,0,0,1-8.26-8.24c0-.23,0-.46,0-.7L56.5,81h-1a9,9,0,0,1-9-9Z"/><path d="M95.5,120.71a8.9,8.9,0,0,0,.12,1.46,8.26,8.26,0,1,0,16.28-2.81L105.5,81h2a6,6,0,0,0,6-6V48a15,15,0,0,0-15-15,3,3,0,0,0-3,3Z"/><circle cx="81.5" cy="89.97" r="9"/><path d="M80,160a80,80,0,1,1,80-80A80.09,80.09,0,0,1,80,160ZM80,1a79,79,0,1,0,79,79A79.09,79.09,0,0,0,80,1Z"/></svg>