<svg id="Layer_1" data-name="Layer 1" xmlns="http://www.w3.org/2000/svg" viewBox="0 0 198.87 134.35"><title>Artboard 30</title><path d="M0,3A3,3,0,0,1,6,3V24h6V3a3,3,0,0,1,6,0V24h6V3a3,3,0,0,1,6,0V39a9,9,0,0,1-9,9H20l3.25,39.06A8.25,8.25,0,0,1,15.7,96c-.23,0-.47,0-.7,0h0a8.25,8.25,0,0,1-8.26-8.24c0-.23,0-.47,0-.7L10,48H9a9,9,0,0,1-9-9Z"/><path d="M49,87.74a8.78,8.78,0,0,0,.12,1.45,8.26,8.26,0,1,0,16.28-2.8L59,48h2a6,6,0,0,0,6-6V15A15,15,0,0,0,52,0a3,3,0,0,0-3,3Z"/><circle cx="35" cy="57" r="8"/><path d="M98.79,39.06c6.44,0,11.72,1.9,15.83,5.6s6.13,8.65,6.13,15.09v24.8c0,5-3.28,8-7.5,8a6.76,6.76,0,0,1-7-4.75,18,18,0,0,1-13.2,5.39c-5.17,0-9.28-1.48-12.56-4.44a15,15,0,0,1-4.85-11.5c0-5.38,1.9-9.39,5.8-12.14s8.87-4.22,14.67-4.43l9.5-.42q0-7.92-7.91-7.92A14.91,14.91,0,0,0,89.08,55c-3.9,2.64-7.7,2.32-9.92-.63-2.43-2.85-1.69-7.08,1.8-9.93C85.49,40.86,91.51,39.06,98.79,39.06Zm-2,41.48a14.65,14.65,0,0,0,8.86-3.17V71.25L99,71.78c-5.48.32-8.23,1.8-8.23,4.64C90.77,79,93,80.54,96.79,80.54Z"/><path d="M148.93,73.05l-4.65,4.54v7c.64,10.56-15.62,10.56-15,0V25.66c-.64-10.56,15.62-10.56,15,0V57.74l15.73-15c3.48-3.28,7.81-3.91,10.87-1.38s3.38,7.39-.32,11.09L159.48,62.7,173,79.8c3.06,4.22,2.32,8.66-1.05,11.3s-8.24,1.79-11.09-2.33Z"/><path d="M189.56,16.9a8.61,8.61,0,0,1,8.77,8.76,8.79,8.79,0,0,1-8.77,8.65,8.71,8.71,0,0,1,0-17.41Zm0,75.67c-4.32,0-7.49-3.06-7.49-8V47.82c0-5,3.17-8,7.49-8s7.5,3.06,7.5,8V84.55C197.06,89.51,193.89,92.57,189.56,92.57Z"/><path d="M18.25,119.42a2,2,0,0,1-3,.11A6,6,0,0,0,11.14,118a5.67,5.67,0,0,0-4.05,1.68,5.93,5.93,0,0,0-1.74,4.5,6.14,6.14,0,0,0,1.74,4.59,5.86,5.86,0,0,0,4.27,1.68,6.38,6.38,0,0,0,4.23-1.54,2,2,0,0,1,3,.11,2,2,0,0,1-.3,2.94,9.83,9.83,0,0,1-6.77,2.37A10.55,10.55,0,0,1,4,131.59a10.61,10.61,0,0,1,0-14.66,10.18,10.18,0,0,1,7.33-2.8,9.94,9.94,0,0,1,6.6,2.35A2,2,0,0,1,18.25,119.42Z"/><path d="M27.31,117a9.73,9.73,0,0,1,7.16-2.88A9.86,9.86,0,0,1,41.68,117a9.63,9.63,0,0,1,2.94,7.22,9.74,9.74,0,0,1-2.94,7.27,10,10,0,0,1-7.21,2.85A9.84,9.84,0,0,1,24.4,124.23,9.72,9.72,0,0,1,27.31,117Zm3,11.64a5.44,5.44,0,0,0,4.31,1.79,5.3,5.3,0,0,0,4.22-1.79,6.42,6.42,0,0,0,1.6-4.42,6.26,6.26,0,0,0-1.65-4.36,5.35,5.35,0,0,0-4.17-1.82,5.53,5.53,0,0,0-4.31,1.79,6.9,6.9,0,0,0,0,8.81Z"/><path d="M60.73,125.43l5-9.82a2.43,2.43,0,0,1,2.37-1.42,2.23,2.23,0,0,1,2.35,2.49V132a2.07,2.07,0,1,1-4.14,0v-9.07L63,129.26a2.42,2.42,0,0,1-2.26,1.43,2.39,2.39,0,0,1-2.24-1.4l-3.33-6.38V132A2.07,2.07,0,1,1,51,132v-15.3a2.23,2.23,0,0,1,2.35-2.49,2.48,2.48,0,0,1,2.38,1.42Z"/><path d="M87.66,125.43l5-9.82A2.44,2.44,0,0,1,95,114.19a2.23,2.23,0,0,1,2.35,2.49V132a2.07,2.07,0,1,1-4.14,0v-9.07l-3.32,6.35a2.44,2.44,0,0,1-2.27,1.43,2.39,2.39,0,0,1-2.24-1.4l-3.32-6.38V132A2.07,2.07,0,1,1,78,132v-15.3a2.23,2.23,0,0,1,2.35-2.49,2.46,2.46,0,0,1,2.37,1.42Z"/><path d="M108.38,125.54c0,3,1.4,5,4.09,5s4.08-1.68,4.08-5.06v-8.95a2.07,2.07,0,1,1,4.14,0v8.81c0,5.84-3.07,9-8.22,9s-8.22-3.16-8.22-9v-8.81a2.07,2.07,0,1,1,4.13,0Z"/><path d="M131.68,120.82V132a2.07,2.07,0,1,1-4.14,0V117.52c0-2,1.15-3.22,3-3.22a3.11,3.11,0,0,1,2.94,1.82l6.93,11.55V116.51a2.07,2.07,0,1,1,4.14,0V131c0,2-1.14,3.22-3,3.22a3.1,3.1,0,0,1-2.94-1.82Z"/><path d="M152.27,116.51a2.07,2.07,0,1,1,4.14,0V132a2.07,2.07,0,1,1-4.14,0Z"/><path d="M176.24,114.47a1.92,1.92,0,1,1,0,3.83h-3.86V132a2,2,0,0,1-2.1,2.21,2,2,0,0,1-2.07-2.21V118.3h-3.83a1.92,1.92,0,1,1,0-3.83Z"/><path d="M193.55,127.19V132a2.07,2.07,0,1,1-4.14,0v-4.79l-5.06-10a1.9,1.9,0,0,1,1-2.77,2,2,0,0,1,2.71,1.23l3.39,7,3.41-7a2,2,0,0,1,2.71-1.23,1.91,1.91,0,0,1,1,2.77Z"/></svg>