<svg width="68" height="32" viewBox="0 0 68 32" fill="none" xmlns="http://www.w3.org/2000/svg">
<g clip-path="url(#clip0)">
<path d="M0 0.999479C0 0.446434 0.459436 0 1.02859 0C1.59774 0 2.05718 0.446434 2.05718 0.999479V7.99584H4.11436V0.999479C4.11436 0.446434 4.57379 0 5.14294 0C5.7121 0 6.17153 0.446434 6.17153 0.999479V7.99584H8.22871V0.999479C8.22871 0.446434 8.68815 0 9.2573 0C9.82645 0 10.2859 0.446434 10.2859 0.999479V12.9932C10.2859 14.649 8.90415 15.9917 7.20012 15.9917H6.85726L7.97156 29.0049C8.10185 30.5208 6.93955 31.8501 5.38295 31.9733C5.30409 31.98 5.2218 31.9833 5.14294 31.9833C3.57949 31.9833 2.31432 30.7573 2.3109 29.2381C2.3109 29.1615 2.31432 29.0815 2.32118 29.0049L3.42863 15.9917H3.08577C1.38174 15.9917 0 14.649 0 12.9932V0.999479Z" fill="#5A4543"/>
<path d="M16.8003 29.2314C16.8003 29.3947 16.814 29.5546 16.8414 29.7145C17.1054 31.2137 18.5729 32.2165 20.1123 31.96C21.6552 31.7035 22.6873 30.2776 22.4232 28.7817L20.2289 15.9917H20.9146C22.0495 15.9917 22.9718 15.0955 22.9718 13.9927V4.9974C22.9718 2.23883 20.6678 0 17.8289 0C17.2597 0 16.8003 0.446434 16.8003 0.999479V29.2314Z" fill="#5A4543"/>
<path d="M12.0002 21.6554C13.5151 21.6554 14.7431 20.4621 14.7431 18.9901C14.7431 17.5181 13.5151 16.3248 12.0002 16.3248C10.4854 16.3248 9.25732 17.5181 9.25732 18.9901C9.25732 20.4621 10.4854 21.6554 12.0002 21.6554Z" fill="#5A4543"/>
<path d="M33.8714 13.0132C36.0795 13.0132 37.8898 13.6462 39.299 14.8755C40.7081 16.1049 41.3973 17.7574 41.3973 19.9029V28.1653C41.3973 29.8178 40.2761 30.8372 38.8292 30.8372C37.6361 30.8372 36.8406 30.3108 36.4395 29.2547C35.2086 30.4508 33.6897 31.0471 31.9171 31.0471C30.1445 31.0471 28.7319 30.554 27.6108 29.5712C26.4896 28.5518 25.9479 27.2857 25.9479 25.7399C25.9479 23.9475 26.5993 22.6115 27.9365 21.6953C29.2771 20.7825 30.9777 20.2894 32.9663 20.2194L36.2235 20.0795C36.2235 18.3204 35.3183 17.4409 33.508 17.4409C32.4211 17.4409 31.444 17.7207 30.5422 18.3204C29.2016 19.2 27.9022 19.0933 27.141 18.1105C26.3079 17.161 26.5616 15.7551 27.7548 14.8056C29.3114 13.6129 31.3754 13.0132 33.8714 13.0132ZM33.1857 26.8327C34.2349 26.8327 35.2498 26.4795 36.2269 25.7765V23.7376L33.9434 23.9142C32.0611 24.0208 31.1217 24.5105 31.1217 25.46C31.1217 26.3063 31.8828 26.8327 33.1857 26.8327Z" fill="#5A4543"/>
<path d="M51.0626 24.3373L49.4717 25.8498V28.172C49.6877 31.6868 44.1162 31.6868 44.3322 28.172V8.54885C44.1162 5.03401 49.6877 5.03401 49.4717 8.54885V19.2399L54.8649 14.2459C56.0581 13.1564 57.5427 12.9432 58.5918 13.7895C59.641 14.6357 59.7507 16.2515 58.4821 17.4809L54.6798 20.8891L59.3119 26.5861C60.361 27.9921 60.1073 29.468 58.9484 30.3475C57.8273 31.1904 56.1267 30.9439 55.1495 29.5746L51.0626 24.3373Z" fill="#5A4543"/>
<path d="M64.9931 5.63037C66.6937 5.63037 67.9966 6.89638 67.9966 8.54885C67.9966 10.1314 66.6217 11.4307 64.9931 11.4307C63.3645 11.4307 62.0273 10.128 62.0273 8.54885C62.0273 6.89638 63.3679 5.63037 64.9931 5.63037ZM64.9931 30.8406C63.5085 30.8406 62.4251 29.8211 62.4251 28.1686V15.9317C62.4251 14.2792 63.5119 13.2597 64.9931 13.2597C66.4777 13.2597 67.5612 14.2792 67.5612 15.9317V28.1686C67.5646 29.8211 66.4777 30.8406 64.9931 30.8406Z" fill="#5A4543"/>
</g>
<defs>
<clipPath id="clip0">
<rect width="68" height="32" fill="white"/>
</clipPath>
</defs>
</svg>
