<svg width="128" height="62" viewBox="0 0 128 62" fill="none" xmlns="http://www.w3.org/2000/svg">
<g clip-path="url(#clip0)">
<path d="M0 1.93649C0 0.864966 0.864821 0 1.93617 0C3.00751 0 3.87233 0.864966 3.87233 1.93649V15.4919H7.74467V1.93649C7.74467 0.864966 8.60949 0 9.68083 0C10.7522 0 11.617 0.864966 11.617 1.93649V15.4919H15.4893V1.93649C15.4893 0.864966 16.3542 0 17.4255 0C18.4968 0 19.3617 0.864966 19.3617 1.93649V25.1744C19.3617 28.3825 16.7608 30.9839 13.5532 30.9839H12.9078L15.0053 56.197C15.2505 59.134 13.0627 61.7095 10.1326 61.9484C9.98417 61.9613 9.82927 61.9677 9.68083 61.9677C6.73786 61.9677 4.35638 59.5923 4.34992 56.6488C4.34992 56.5004 4.35638 56.3454 4.36928 56.197L6.45389 30.9839H5.8085C2.60092 30.9839 0 28.3825 0 25.1744V1.93649Z" fill="white"/>
<path d="M31.6241 56.6359C31.6241 56.9522 31.6499 57.262 31.7015 57.5719C32.1985 60.4766 34.9607 62.4196 37.8585 61.9225C40.7628 61.4255 42.7054 58.6628 42.2085 55.7645L38.078 30.9839H39.3688C41.505 30.9839 43.2411 29.2475 43.2411 27.1109V9.68246C43.2411 4.33774 38.9041 0 33.5603 0C32.4889 0 31.6241 0.864966 31.6241 1.93649V56.6359Z" fill="white"/>
<path d="M22.5886 41.9573C25.4401 41.9573 27.7517 39.6453 27.7517 36.7933C27.7517 33.9413 25.4401 31.6294 22.5886 31.6294C19.7371 31.6294 17.4255 33.9413 17.4255 36.7933C17.4255 39.6453 19.7371 41.9573 22.5886 41.9573Z" fill="white"/>
<path d="M63.758 25.2131C67.9143 25.2131 71.3219 26.4396 73.9745 28.8214C76.627 31.2033 77.9242 34.405 77.9242 38.562V54.5703C77.9242 57.772 75.8138 59.7472 73.0903 59.7472C70.8443 59.7472 69.347 58.7273 68.5919 56.6811C66.275 58.9984 63.4159 60.1539 60.0792 60.1539C56.7426 60.1539 54.0836 59.1985 51.9732 57.2943C49.8627 55.3191 48.843 52.8662 48.843 49.8711C48.843 46.3983 50.0693 43.8099 52.5863 42.0348C55.1097 40.2661 58.3109 39.3108 62.0541 39.1752L68.1853 38.9041C68.1853 35.4959 66.4815 33.7918 63.0738 33.7918C61.028 33.7918 59.1886 34.334 57.4912 35.4959C54.9678 37.2 52.5217 36.9934 51.089 35.0892C49.5207 33.2496 49.9983 30.5256 52.2442 28.6859C55.1743 26.375 59.0595 25.2131 63.758 25.2131ZM62.4672 51.9883C64.4421 51.9883 66.3524 51.3041 68.1918 49.9421V45.9917L63.8935 46.3338C60.3503 46.5403 58.5819 47.4892 58.5819 49.3289C58.5819 50.9685 60.0147 51.9883 62.4672 51.9883Z" fill="white"/>
<path d="M96.1178 47.1536L93.1232 50.0841V54.5832C93.5298 61.3932 83.0422 61.3932 83.4488 54.5832V16.5635C83.0422 9.75346 93.5298 9.75346 93.1232 16.5635V37.2775L103.275 27.6015C105.521 25.4907 108.316 25.0776 110.291 26.7171C112.265 28.3567 112.472 31.4873 110.084 33.8692L102.927 40.4727L111.646 51.5107C113.621 54.2347 113.143 57.0942 110.962 58.7983C108.851 60.4314 105.65 59.9538 103.811 57.3008L96.1178 47.1536Z" fill="white"/>
<path d="M122.34 10.9089C125.541 10.9089 127.994 13.3618 127.994 16.5635C127.994 19.6296 125.406 22.147 122.34 22.147C119.274 22.147 116.757 19.6231 116.757 16.5635C116.757 13.3618 119.281 10.9089 122.34 10.9089ZM122.34 59.7537C119.545 59.7537 117.506 57.7785 117.506 54.5768V30.8677C117.506 27.666 119.552 25.6908 122.34 25.6908C125.134 25.6908 127.174 27.666 127.174 30.8677V54.5768C127.18 57.7785 125.134 59.7537 122.34 59.7537Z" fill="white"/>
</g>
<defs>
<clipPath id="clip0">
<rect width="128" height="62" fill="white"/>
</clipPath>
</defs>
</svg>
