<svg width="141" height="203" viewBox="0 0 141 203" fill="none" xmlns="http://www.w3.org/2000/svg">
<g filter="url(#filter0_d)">
<g clip-path="url(#clip0)">
<path d="M70.6051 178.855L72.9163 176.129C75.4376 173.194 137 102.113 137 66.4677C137.21 29.7742 107.374 0 70.6051 0C33.8357 0 4 29.7742 4 66.4677C4 102.113 65.5624 173.194 68.0837 176.129L70.6051 178.855ZM70.6051 6.29032C103.803 6.29032 130.907 33.3387 130.907 66.4677C130.907 96.0323 82.1611 155.581 70.6051 169.21C59.2591 155.581 10.3033 96.0323 10.3033 66.4677C10.3033 33.3387 37.4076 6.29032 70.6051 6.29032Z" fill="#F84339"/>
<path d="M118.09 66.4677C118.09 40.2581 96.8689 19.0807 70.605 19.0807C44.3412 19.0807 23.1201 40.2581 23.1201 66.4677C23.1201 92.6774 44.3412 113.855 70.605 113.855C96.8689 113.645 118.09 92.4677 118.09 66.4677ZM73.7567 106.935V71.2903H90.7757C89.7251 89.1129 82.5814 104 73.7567 106.935ZM73.7567 65V25.7903C83.0016 28.9355 90.5656 45.5 90.7757 64.7903H73.7567V65ZM67.4534 25.7903V64.7903H50.4344C50.8547 45.5 58.2085 28.9355 67.4534 25.7903ZM67.4534 71.2903V106.935C58.6287 104 51.6951 89.3226 50.4344 71.2903H67.4534ZM86.9937 104.21C92.6667 96.4516 96.4487 84.9194 97.2891 71.2903H111.787C109.896 85.9677 100.231 98.3387 86.9937 104.21ZM111.787 65H97.2891C97.079 50.1129 93.0869 36.9032 86.9937 28.7258C101.071 34.8065 111.156 48.6452 111.787 65ZM54.4265 28.5161C48.3333 36.9032 44.3412 49.9032 44.1311 64.7903H29.6335C30.2638 48.6452 40.139 34.8065 54.4265 28.5161ZM29.8436 71.2903H44.3412C45.1817 84.9194 48.9637 96.4516 54.6366 104.21C41.1896 98.3387 31.5245 85.9677 29.8436 71.2903Z" fill="#F84339"/>
<path d="M103.592 166.484C101.912 166.065 100.231 166.903 99.6003 168.581C99.1801 170.258 100.021 171.935 101.701 172.565C110.946 175.081 112.837 178.016 112.837 178.855C112.837 181.79 98.3397 188.71 70.395 188.71C42.4502 188.71 27.9526 181.79 27.9526 178.855C27.9526 178.016 30.0537 175.29 39.0885 172.774C40.7694 172.355 41.8199 170.468 41.1896 168.79C40.7694 167.113 38.8784 166.065 37.1975 166.694C26.9021 169.629 21.6493 173.823 21.6493 178.855C21.6493 189.968 46.8626 195 70.395 195C93.9273 195 119.141 189.968 119.141 178.855C119.351 173.613 114.098 169.629 103.592 166.484Z" fill="#F84339"/>
</g>
</g>
<defs>
<filter id="filter0_d" x="0" y="0" width="141" height="203" filterUnits="userSpaceOnUse" color-interpolation-filters="sRGB">
<feFlood flood-opacity="0" result="BackgroundImageFix"/>
<feColorMatrix in="SourceAlpha" type="matrix" values="0 0 0 0 0 0 0 0 0 0 0 0 0 0 0 0 0 0 127 0"/>
<feOffset dy="4"/>
<feGaussianBlur stdDeviation="2"/>
<feColorMatrix type="matrix" values="0 0 0 0 0 0 0 0 0 0 0 0 0 0 0 0 0 0 0.25 0"/>
<feBlend mode="normal" in2="BackgroundImageFix" result="effect1_dropShadow"/>
<feBlend mode="normal" in="SourceGraphic" in2="effect1_dropShadow" result="shape"/>
</filter>
<clipPath id="clip0">
<rect x="4" width="133" height="195" fill="white"/>
</clipPath>
</defs>
</svg>
