<svg width="38" height="38" viewBox="0 0 38 38" fill="none" xmlns="http://www.w3.org/2000/svg">
<g clip-path="url(#clip0)">
<path d="M11.0437 8.54288C11.0437 8.14863 11.362 7.83038 11.7562 7.83038C12.1505 7.83038 12.4687 8.14863 12.4687 8.54288V13.5304H13.8937V8.54288C13.8937 8.14863 14.212 7.83038 14.6062 7.83038C15.0005 7.83038 15.3187 8.14863 15.3187 8.54288V13.5304H16.7437V8.54288C16.7437 8.14863 17.062 7.83038 17.4562 7.83038C17.8505 7.83038 18.1687 8.14863 18.1687 8.54288V17.0929C18.1687 18.2733 17.2116 19.2304 16.0312 19.2304H15.7937L16.5656 28.5071C16.6558 29.5878 15.8507 30.5354 14.7725 30.6233C14.7178 30.628 14.6608 30.6304 14.6062 30.6304C13.5232 30.6304 12.6468 29.7564 12.6445 28.6734C12.6445 28.6188 12.6468 28.5618 12.6516 28.5071L13.4187 19.2304H13.1812C12.0008 19.2304 11.0437 18.2733 11.0437 17.0929V8.54288Z" fill="#F84339"/>
<path d="M22.6812 28.6686C22.6812 28.785 22.6907 28.899 22.7097 29.013C22.8925 30.0818 23.909 30.7966 24.9754 30.6138C26.0418 30.4309 26.759 29.4144 26.5762 28.348L25.0562 19.2304H25.5312C26.3173 19.2304 26.9562 18.5915 26.9562 17.8054V11.3929C26.9562 9.42638 25.3602 7.83038 23.3937 7.83038C22.9994 7.83038 22.6812 8.14863 22.6812 8.54288V28.6686Z" fill="#F84339"/>
<path d="M19.3562 23.5054C20.5368 23.5054 21.4937 22.5484 21.4937 21.3679C21.4937 20.1874 20.5368 19.2304 19.3562 19.2304C18.1757 19.2304 17.2188 20.1874 17.2188 21.3679C17.2188 22.5484 18.1757 23.5054 19.3562 23.5054Z" fill="#F84339"/>
<path d="M19 37.8812C29.4278 37.8812 37.8813 29.4278 37.8813 19C37.8813 8.57217 29.4278 0.118744 19 0.118744C8.5722 0.118744 0.118774 8.57217 0.118774 19C0.118774 29.4278 8.5722 37.8812 19 37.8812Z" stroke="#F84339" stroke-miterlimit="10"/>
</g>
<defs>
<clipPath id="clip0">
<rect width="38" height="38" fill="white"/>
</clipPath>
</defs>
</svg>
