<svg width="100" height="100" viewBox="0 0 100 100" fill="none" xmlns="http://www.w3.org/2000/svg">
<rect x="0.5" y="0.5" width="99" height="99" rx="49.5" fill="#F84339" stroke="white"/>
<path fill-rule="evenodd" clip-rule="evenodd" d="M56.5321 50.8205L51.084 56.2686C50.688 56.6646 50.688 57.3095 51.084 57.7055C51.4851 58.1066 52.1249 58.1015 52.5209 57.7055L59.7004 50.526C59.8985 50.328 60 50.069 60 49.8101C60 49.5511 59.8985 49.2922 59.7004 49.0942L52.5209 41.9096C52.1249 41.5136 51.4801 41.5136 51.084 41.9096C50.6829 42.3107 50.688 42.9505 51.084 43.3465L56.527 48.7895H41.0155C40.457 48.7895 40 49.2465 40 49.805C40 50.3686 40.457 50.8205 41.0155 50.8205H56.5321Z" fill="white"/>
</svg>
