<svg width="100" height="100" viewBox="0 0 100 100" fill="none" xmlns="http://www.w3.org/2000/svg">
<rect x="99.5" y="99.5" width="99" height="99" rx="49.5" transform="rotate(-180 99.5 99.5)" fill="#F84339" stroke="white"/>
<path fill-rule="evenodd" clip-rule="evenodd" d="M43.4679 49.1795L48.916 43.7314C49.312 43.3353 49.312 42.6905 48.916 42.2945C48.5149 41.8934 47.8751 41.8984 47.4791 42.2945L40.2996 49.474C40.1015 49.672 40 49.9309 40 50.1899C40 50.4488 40.1015 50.7078 40.2996 50.9058L47.4791 58.0904C47.8751 58.4864 48.5199 58.4864 48.916 58.0904C49.3171 57.6892 49.312 57.0495 48.916 56.6534L43.473 51.2104L58.9845 51.2104C59.543 51.2104 60 50.7535 60 50.195C60 49.6314 59.543 49.1795 58.9845 49.1795L43.4679 49.1795Z" fill="white"/>
</svg>
