<svg width="192" height="192" viewBox="0 0 192 192" fill="none" xmlns="http://www.w3.org/2000/svg">
<path fill-rule="evenodd" clip-rule="evenodd" d="M163.92 163.92C181.294 146.545 192 122.501 192 96C192 69.4991 181.294 45.4552 163.92 28.0804C146.545 10.7057 122.501 0 96 0C69.4991 0 45.4552 10.7057 28.0804 28.0804C10.7057 45.4552 0 69.4991 0 96C0 122.501 10.7057 146.545 28.0804 163.92C45.4552 181.294 69.4991 192 96 192C122.501 192 146.545 181.294 163.92 163.92ZM108.987 133.031C108.987 125.835 103.196 120.044 96 120.044C88.8044 120.044 82.8373 125.835 82.8373 133.031C82.8373 140.227 88.8044 146.194 96 146.194C103.196 146.194 108.987 140.227 108.987 133.031ZM96 106.881C91.2614 106.881 87.7514 103.02 87.2249 98.106L82.8373 58.9689C82.1353 52.1243 89.3309 45.8062 96 45.8062C102.669 45.8062 109.865 52.1243 108.987 58.9689L104.775 98.106C104.249 103.02 100.739 106.881 96 106.881Z" fill="#F84339"/>
</svg>
